<svg class="cmarket__canvas crypto-line js-crypto-line" width="1440" height="442.6881396469598" xmlns="http://www.w3.org/2000/svg" version="1.1" xmlns:xlink="http://www.w3.org/1999/xlink" xmlns:svgjs="http://svgjs.com/svgjs" viewBox="0 0 1440 443">
	<path data-easing="linear" class="path1" d="M-95 2637.88L133 2569.51L434.99 2879.17L669.43 2552.51L1002.38 2768.5L1275.48 2546 " fill-opacity="0" fill="#ffffff" stroke-dashoffset="0" stroke-linejoin="miter" stroke-linecap="butt" stroke-opacity="1" stroke="#979797" stroke-miterlimit="50" stroke-width="1" transform="matrix(1,0,0,1,95.31513991430182,-2438)"></path>
	<path data-easing="linear" class="path2" d="M-19 2698.48L294.18 2727L486.2 2489.19L736.77 2727L859 2480L1033 2540.21 " fill-opacity="0" fill="#ffffff" stroke-dashoffset="0" stroke-linejoin="miter" stroke-linecap="butt" stroke-opacity="1" stroke="#979797" stroke-miterlimit="50" stroke-width="1" transform="matrix(1,0,0,1,95.31513991430182,-2438)"></path>
	<path data-easing="linear" class="path3" d="M-79 2695.75L70.62 2624.07L200.23 2695.75L366.93 2560.19L540.55 2629.2L645.46 2492.52L859.06 2439 L1110 2639 L1259 2439 L1440 2439 " fill-opacity="0" fill="#ffffff" stroke-dashoffset="0" stroke-linejoin="round" stroke-linecap="round" stroke-opacity="1" stroke="#97de5b" stroke-miterlimit="50" stroke-width="2" transform="matrix(1,0,0,1,95.31513991430182,-2438)"></path>
</svg>